PathFileType	4	(X/Y/Z)	C:\Users\WrightLab\Desktop\Jo\P2_Trial23.trc
DataRate	CameraRate	NumFrames	NumMarkers	Units	OrigDataRate	OrigDataStartFrame	OrigNumFrames
100.00	100.00	      42	19	mm	100.00	1	      1217
Frame#	Time	Headset_Front			Headset_Back			Headset_Left			Headset_Right			Left_Shoulder			Right_Shoulder			Sternum			C7			Left Elbow			Right Elbow			Left Wrist			Right Wrist			Left ASIS			Right ASIS			S2			Left Knee			Right Knee			Left Ankle			Right Ankle			
		X1	Y1	Z1	X2	Y2	Z2	X3	Y3	Z3	X4	Y4	Z4	X5	Y5	Z5	X6	Y6	Z6	X7	Y7	Z7	X8	Y8	Z8	X9	Y9	Z9	X10	Y10	Z10	X11	Y11	Z11	X12	Y12	Z12	X13	Y13	Z13	X14	Y14	Z14	X15	Y15	Z15	X16	Y16	Z16	X17	Y17	Z17	X18	Y18	Z18	X19	Y19	Z19	

1	0.000																																														-484.92935	500.34579	2317.25269	-54.87424	588.73761	2334.42871							
2	0.010																																														-482.80063	500.16098	2315.92139	-52.71352	588.80444	2330.51099							
3	0.020																																														-479.96085	499.37949	2313.78223	-50.00721	588.80652	2326.80981							
4	0.030																																														-477.86032	499.12280	2312.25195	-47.61113	588.35913	2322.72461							
5	0.040																																														-474.54971	498.65646	2310.26587	-45.63600	588.76447	2319.46899							
6	0.050																																														-471.23389	497.87750	2307.88257	-42.92211	588.38208	2315.06787							
7	0.060																																														-467.94495	497.15295	2304.82056	-41.00335	587.75085	2311.71973							
8	0.070																																											-305.56100	994.71173	2436.63745	-463.63818	496.53320	2302.44922	-38.65357	587.63568	2307.67407							
9	0.080																																											-300.88388	993.73633	2433.73242	-459.99353	495.87085	2299.81079	-37.03850	587.67560	2305.31274							
10	0.090																																											-296.10144	994.22192	2431.95752	-456.34982	495.33209	2296.64307	-34.56788	587.45123	2303.05347							
11	0.100																						-257.35815	1480.09937	2389.43555																			-290.84839	993.04688	2428.77905	-452.02621	494.61346	2294.72046	-31.51040	586.88873	2299.99268							
12	0.110																						-252.72141	1479.41882	2385.81250																			-285.55887	992.09082	2425.56055	-447.71722	493.70743	2290.88989	-30.60505	585.73193	2300.08887							
13	0.120																			-225.98613	1734.20898	2292.53638	-247.77815	1478.60876	2382.94897																			-280.41528	992.34052	2423.69971	-443.67264	492.88055	2288.60522	-27.96188	584.22754	2299.06470							
14	0.130																			-221.06122	1733.66870	2288.37720	-243.33411	1478.24841	2380.07007																			-275.09424	991.32776	2421.23193	-439.47726	492.34637	2285.99194	-25.57113	583.54205	2298.99365							
15	0.140																			-216.23074	1733.20789	2285.01074	-238.49271	1477.89026	2377.49170																			-269.56091	990.79059	2418.23145	-435.03372	491.60403	2283.34741	-22.39290	581.74561	2298.26050							
16	0.150																			-211.84935	1733.43726	2281.49121	-233.71300	1478.04236	2374.58130																			-264.23813	990.53522	2416.04419	-430.48987	490.65128	2280.31055	-19.72569	580.33691	2298.28589							
17	0.160																			-206.89760	1733.54199	2277.72070	-228.86838	1477.75513	2371.63086																			-258.29767	989.92535	2413.24414	-426.16437	490.34726	2278.02832	-17.42231	580.53967	2297.62964							
18	0.170																			-202.06587	1733.48596	2274.37500	-223.26614	1477.78003	2368.19067																			-252.75175	989.78497	2410.55469	-421.84076	490.03659	2275.35815	-13.86238	580.61786	2295.97754							
19	0.180																			-197.16708	1733.78967	2271.06104	-218.67975	1478.13391	2365.64160																			-247.37395	989.09125	2407.68042	-417.37653	490.03998	2273.32153	-10.67588	580.82349	2294.43433							
20	0.190																			-192.15440	1734.01489	2267.52783	-213.75642	1478.34509	2363.06909																			-241.73920	989.19147	2404.97949	-412.88098	489.86127	2270.45825	-5.38360	581.93835	2290.37695							
21	0.200																			-187.06270	1734.21582	2264.16284	-208.87843	1478.86426	2360.33740																			-236.64171	989.57501	2402.65918	-408.32373	489.64789	2267.49902	-2.86668	582.78094	2289.94214							
22	0.210																			-181.69794	1734.06360	2260.29614	-203.59018	1479.18677	2356.72412																			-231.72238	989.71613	2400.08569	-403.80392	489.99695	2264.86572	1.28585	583.54633	2289.71558							
23	0.220																			-176.25398	1734.63074	2256.27490	-198.30125	1479.69800	2353.87427																			-226.40071	990.02118	2397.22290	-399.28619	490.45825	2261.91870	5.56287	584.68707	2287.74023							
24	0.230																			-171.22462	1734.84326	2252.99243	-193.05521	1480.65466	2351.02881																			-221.65021	990.82916	2394.67700	-394.60788	491.00989	2259.44897	9.59996	585.68890	2285.50073							
25	0.240																			-165.91753	1735.59888	2248.82959	-187.89282	1481.69250	2348.01440																			-217.23833	991.59930	2392.22656	-389.83737	491.75705	2255.88257	15.19059	586.80133	2284.88086							
26	0.250							-283.89288	1649.27893	2160.67065										-160.74393	1736.35864	2245.26831	-182.41144	1482.36414	2345.16187																			-212.07672	992.55194	2389.80444	-384.60391	492.35440	2253.32910	19.72478	587.24133	2284.36499							
27	0.260							-279.11459	1649.69800	2158.08765										-155.37959	1736.99182	2241.17407	-176.96362	1483.38953	2341.93018																			-207.39787	993.59344	2387.54150	-379.32858	493.15234	2250.34106	26.18770	587.61969	2283.47119							
28	0.270							-274.44165	1650.00208	2155.32617										-150.19862	1737.60864	2237.23364	-171.67639	1484.44067	2339.38257																			-202.72858	994.73169	2385.21460	-373.91724	494.21790	2246.44629	32.50917	589.00861	2285.02490							
29	0.280							-269.47766	1650.72205	2151.76807										-144.87753	1738.41992	2233.01392	-166.56650	1485.78882	2336.42310																			-198.11128	995.98865	2383.57495	-368.10764	495.09641	2243.34985	38.87256	589.81506	2285.70996							
30	0.290							-264.80432	1651.21118	2148.47510										-139.61366	1739.20032	2228.59229	-161.17049	1486.91736	2333.05103										157.49568	1061.43555	2191.50073							-193.27664	996.85187	2380.96313	-362.17740	495.87704	2239.77930	44.20929	590.93445	2286.17407							
31	0.300							-260.52130	1651.51001	2146.02808										-134.68025	1740.06091	2224.74561	-155.81281	1487.86157	2329.61792										160.73921	1061.11658	2188.12109							-188.68179	998.09344	2379.26074	-356.12619	496.83185	2235.80640	51.20359	591.49805	2286.92871							
32	0.310							-256.00897	1651.97876	2142.68384										-129.77715	1740.74280	2220.65161	-151.14653	1489.41492	2327.00488										164.38480	1060.88257	2183.90527							-183.81381	999.43793	2377.47437	-349.56384	497.82156	2231.22363	57.44093	591.24695	2286.11890							
33	0.320							-251.27133	1652.64746	2138.80249										-124.86804	1741.39795	2216.56445	-146.03505	1490.35437	2323.75952										167.75311	1060.31262	2182.15796							-179.39117	1000.65790	2375.79541	-342.08844	499.08627	2226.61206	62.41325	592.73810	2285.87842							
34	0.330							-247.16245	1652.67114	2135.99219										-120.49513	1741.92480	2213.07300	-141.32112	1491.20386	2320.52222										171.25778	1060.26086	2179.08521							-174.54263	1001.92206	2374.05542	-333.07321	499.49167	2220.97144	68.41392	593.22290	2286.92480							
35	0.340							-243.00906	1653.18445	2132.98462										-115.80196	1741.90051	2208.96606	-136.68507	1491.92188	2317.73608										174.42456	1059.43530	2176.99194							-169.76799	1002.84192	2372.56079	-323.89517	500.08725	2214.98560	73.14683	593.32111	2286.70313							
36	0.350							-239.08394	1653.21069	2129.83643										-111.17714	1742.00537	2205.05933	-131.87297	1492.43726	2313.95776										177.19916	1057.52515	2172.96069							-165.40207	1003.67645	2370.93921	-314.25214	500.78549	2208.81592	78.62348	594.00073	2287.82666							
37	0.360							-235.10973	1653.27539	2126.47656										-106.86701	1742.02283	2200.94922	-127.51662	1493.56531	2311.08813										180.98181	1056.07874	2171.63843							-161.06628	1004.64105	2369.56567	-304.08878	499.70697	2203.00928	83.67246	594.97137	2288.93994							
38	0.370							-231.50284	1653.68201	2123.32642										-102.75520	1741.72205	2197.41797	-123.26000	1494.16260	2307.80640										183.90871	1053.63232	2168.16431							-156.79996	1005.17657	2367.93188	-294.22433	499.85507	2196.65967	86.79193	595.29529	2289.46460							
39	0.380							-227.47636	1653.04663	2119.60181										-98.67088	1742.17078	2193.36597	-119.09789	1494.89612	2304.73706										187.24117	1051.54138	2167.54126							-152.85179	1005.68488	2366.08496	-284.09998	499.63004	2189.75806	89.59893	595.28784	2290.03491							
40	0.390							-223.83426	1653.35828	2115.53638										-95.27856	1742.30054	2189.73315	-115.10715	1495.38123	2301.64307										190.50938	1048.22559	2165.51172							-149.15388	1006.20190	2364.18042	-273.76385	499.21875	2184.02271	91.49525	594.78363	2289.04395							
41	0.400							-220.59180	1653.28369	2112.36133										-91.51927	1741.86047	2185.32837	-110.63812	1495.62329	2297.57056										193.67516	1045.59570	2164.52344							-145.73582	1006.60767	2361.93164	-265.26395	501.99353	2174.90820	93.91119	595.04926	2289.50464							
42	0.410							-217.59889	1653.74707	2108.81519										-88.11065	1742.15625	2180.82104	-107.00662	1496.82227	2294.95532										197.01636	1042.35645	2163.33521							-142.74884	1007.29242	2360.17407	-258.66721	506.56720	2168.04395	96.50105	595.26965	2290.02026							
